<svg version="1.1" id="Layer_1" xmlns="http://www.w3.org/2000/svg" xmlns:xlink="http://www.w3.org/1999/xlink" x="0px" y="0px"
	 width="100%" viewBox="0 0 195 83" enable-background="new 0 0 195 83" xml:space="preserve">
<path fill="#FDFDFD" opacity="1.000000" stroke="none" 
	d="
M126.000000,84.000000 
	C84.000008,84.000000 42.500019,84.000000 1.000022,84.000000 
	C1.000015,56.333351 1.000015,28.666700 1.000007,1.000037 
	C65.999969,1.000025 130.999939,1.000025 195.999939,1.000012 
	C195.999954,28.666628 195.999954,56.333256 195.999969,83.999939 
	C172.833328,84.000000 149.666672,84.000000 126.000000,84.000000 
M155.143082,54.218018 
	C155.012619,54.063629 154.882156,53.909241 155.164413,53.113674 
	C158.357712,52.164867 161.551010,51.216061 166.046402,49.880375 
	C162.680054,48.607147 159.550400,48.329140 159.109024,47.092018 
	C157.594254,42.846310 155.157120,44.956032 154.143341,46.454350 
	C151.438477,50.452053 148.756210,54.686226 147.307144,59.223156 
	C146.532181,61.649437 147.455765,65.668365 149.164642,67.584633 
	C151.556488,70.266739 155.088333,69.245781 159.168640,65.771248 
	C155.361664,65.424500 152.883347,65.198761 150.401520,64.972710 
	C150.882629,60.372612 150.882629,60.372612 161.141922,57.121063 
	C160.794495,52.606628 157.844086,54.303123 155.143082,54.218018 
M100.014709,53.466206 
	C94.436813,64.865051 94.374947,65.311607 98.390488,69.311401 
	C99.708115,65.806725 100.933830,62.546505 102.177513,59.238499 
	C103.176720,59.676998 103.567635,59.727810 103.757225,59.950233 
	C105.911552,62.477673 107.991806,65.069160 110.175919,67.570122 
	C114.760262,72.819519 120.605293,71.754364 123.201088,65.380714 
	C124.573708,62.010452 126.346977,58.803364 127.939362,55.522606 
	C128.366684,55.666302 128.794022,55.809994 129.221359,55.953686 
	C129.474182,59.191833 129.521088,62.466469 130.085098,65.649483 
	C130.299210,66.857849 131.546204,68.101936 132.654648,68.808769 
	C133.018982,69.041107 134.925598,67.832268 135.283066,66.943153 
	C138.119980,59.887035 140.601074,52.649117 148.618347,48.772064 
	C138.649323,43.816673 138.152191,53.873508 134.045868,56.226677 
	C132.284729,53.743408 130.581116,51.341255 127.851631,47.492596 
	C123.466644,54.397594 119.943092,59.946102 115.867325,66.364182 
	C113.289589,64.152649 109.948395,61.286137 106.398239,58.240341 
	C109.206825,56.487156 111.417221,55.388851 113.262680,53.852261 
	C114.411957,52.895348 115.009460,51.275761 115.854591,49.953575 
	C114.460373,49.192451 113.136513,48.226135 111.655449,47.718266 
	C109.429459,46.954948 107.093361,46.512737 104.175148,45.775005 
	C103.164528,47.614552 101.743576,50.200962 100.014709,53.466206 
M85.694443,58.139885 
	C83.236595,60.907883 80.599693,63.286091 76.997093,62.698517 
	C75.117477,56.253727 85.784126,52.189331 79.227203,44.233078 
	C76.671349,50.455399 74.103241,55.833248 72.270233,61.450954 
	C70.843483,65.823563 74.586143,69.915817 78.805893,68.910110 
	C84.510422,67.550537 88.948814,64.307114 91.560722,58.878677 
	C92.341270,57.256435 92.959045,55.525967 93.942513,54.037418 
	C96.070152,50.817062 94.992867,48.432304 92.540268,46.052841 
	C90.281952,50.085869 88.196808,53.809639 85.694443,58.139885 
M54.096935,50.523918 
	C50.365936,53.599159 47.550472,57.162426 47.945271,62.367085 
	C48.276062,66.727936 52.804749,70.073959 56.120659,68.231483 
	C59.695282,66.245247 63.485619,64.323311 66.360733,61.528584 
	C67.978264,59.956280 69.167755,56.212742 68.425125,54.252304 
	C65.671577,46.983322 61.377872,45.950020 54.096935,50.523918 
M44.786194,45.114399 
	C43.598148,46.445599 41.975391,47.588860 41.303406,49.143169 
	C39.270607,53.845089 37.740944,58.763191 35.747166,63.483833 
	C34.595867,66.209747 32.927456,68.717255 31.367672,71.548340 
	C26.302853,67.879761 35.720451,61.754471 26.581137,59.280979 
	C26.493525,62.982857 25.718510,66.472900 26.575788,69.500801 
	C27.175655,71.619530 29.812654,73.454849 31.965336,74.650887 
	C32.563663,74.983322 34.912247,72.774643 36.034180,71.388779 
	C37.218220,69.926193 37.927052,68.069397 38.789059,66.357414 
	C41.296448,61.377609 44.027828,56.486313 46.122887,51.337143 
	C46.800507,49.671707 45.780117,47.315399 44.786194,45.114399 
M182.326126,63.084492 
	C183.225311,62.325844 184.124481,61.567196 185.808212,60.146610 
	C180.693146,60.146610 176.893539,60.146610 173.038391,60.146610 
	C174.051346,55.003830 181.468033,51.571182 176.551926,45.189487 
	C172.803467,50.415684 169.670471,55.826561 166.986328,61.451630 
	C166.303604,62.882374 166.413605,66.030449 167.277740,66.558182 
	C168.708298,67.431824 171.183411,67.270859 172.971725,66.730064 
	C175.914520,65.840149 178.660294,64.298698 182.326126,63.084492 
M39.899338,36.505566 
	C42.660488,39.199986 44.485180,37.839657 43.942757,34.783600 
	C42.241505,25.198650 40.034393,15.698955 37.783962,6.223060 
	C37.560120,5.280526 35.699768,4.726648 34.598953,3.992386 
	C34.161106,5.246019 33.145683,6.619068 33.376305,7.734497 
	C35.314331,17.108152 37.480701,26.434597 39.899338,36.505566 
M13.837706,19.515823 
	C9.606476,19.561354 10.211024,21.619537 11.858025,24.188265 
	C15.866074,30.439379 19.756178,36.769077 23.909447,42.921539 
	C24.712454,44.111076 26.496351,44.638458 27.827768,45.471287 
	C27.863035,43.868580 28.531883,41.880543 27.829861,40.726238 
	C23.546953,33.684029 18.952639,26.831207 13.837706,19.515823 
M58.326069,34.892712 
	C58.761127,34.668591 59.544842,34.489437 59.580395,34.213787 
	C60.536366,26.802206 61.463505,19.385538 62.209793,11.951083 
	C62.265007,11.401064 60.735882,10.081129 60.275173,10.220013 
	C59.373852,10.491721 58.131828,11.471488 58.033745,12.279844 
	C57.219780,18.988092 56.582176,25.720036 56.057068,32.457737 
	C56.000118,33.188416 56.994614,34.001038 58.326069,34.892712 
M12.010234,46.466984 
	C10.486012,44.709763 9.106943,42.786190 7.371077,41.271526 
	C6.602139,40.600574 5.111352,40.756893 3.948243,40.537682 
	C3.911916,41.717911 3.405265,43.198135 3.929857,44.020588 
	C5.348543,46.244793 6.993178,48.426487 8.948387,50.178398 
	C10.918159,51.943359 11.427876,56.227776 15.664193,54.548122 
	C14.580941,52.047535 13.497688,49.546944 12.010234,46.466984 
z"/>
<path fill="#0F0F0F" opacity="1.000000" stroke="none" 
	d="
M100.168671,53.126793 
	C101.743576,50.200962 103.164528,47.614552 104.175148,45.775005 
	C107.093361,46.512737 109.429459,46.954948 111.655449,47.718266 
	C113.136513,48.226135 114.460373,49.192451 115.854591,49.953575 
	C115.009460,51.275761 114.411957,52.895348 113.262680,53.852261 
	C111.417221,55.388851 109.206825,56.487156 106.398239,58.240341 
	C109.948395,61.286137 113.289589,64.152649 115.867325,66.364182 
	C119.943092,59.946102 123.466644,54.397594 127.851631,47.492596 
	C130.581116,51.341255 132.284729,53.743408 134.045868,56.226677 
	C138.152191,53.873508 138.649323,43.816673 148.618347,48.772064 
	C140.601074,52.649117 138.119980,59.887035 135.283066,66.943153 
	C134.925598,67.832268 133.018982,69.041107 132.654648,68.808769 
	C131.546204,68.101936 130.299210,66.857849 130.085098,65.649483 
	C129.521088,62.466469 129.474182,59.191833 129.221359,55.953686 
	C128.794022,55.809994 128.366684,55.666302 127.939362,55.522606 
	C126.346977,58.803364 124.573708,62.010452 123.201088,65.380714 
	C120.605293,71.754364 114.760262,72.819519 110.175919,67.570122 
	C107.991806,65.069160 105.911552,62.477673 103.757225,59.950233 
	C103.567635,59.727810 103.176720,59.676998 102.177513,59.238499 
	C100.933830,62.546505 99.708115,65.806725 98.390488,69.311401 
	C94.374947,65.311607 94.436813,64.865051 100.168671,53.126793 
z"/>
<path fill="#111111" opacity="1.000000" stroke="none" 
	d="
M85.903053,57.836647 
	C88.196808,53.809639 90.281952,50.085869 92.540268,46.052841 
	C94.992867,48.432304 96.070152,50.817062 93.942513,54.037418 
	C92.959045,55.525967 92.341270,57.256435 91.560722,58.878677 
	C88.948814,64.307114 84.510422,67.550537 78.805893,68.910110 
	C74.586143,69.915817 70.843483,65.823563 72.270233,61.450954 
	C74.103241,55.833248 76.671349,50.455399 79.227203,44.233078 
	C85.784126,52.189331 75.117477,56.253727 76.997093,62.698517 
	C80.599693,63.286091 83.236595,60.907883 85.903053,57.836647 
z"/>
<path fill="#0E0E0E" opacity="1.000000" stroke="none" 
	d="
M54.386639,50.303608 
	C61.377872,45.950020 65.671577,46.983322 68.425125,54.252304 
	C69.167755,56.212742 67.978264,59.956280 66.360733,61.528584 
	C63.485619,64.323311 59.695282,66.245247 56.120659,68.231483 
	C52.804749,70.073959 48.276062,66.727936 47.945271,62.367085 
	C47.550472,57.162426 50.365936,53.599159 54.386639,50.303608 
M59.625816,54.089645 
	C56.931965,56.685150 54.238110,59.280659 51.544254,61.876163 
	C51.972290,62.441303 52.400326,63.006443 52.828362,63.571583 
	C57.082039,61.387077 61.335712,59.202572 65.589386,57.018066 
	C65.448997,56.273582 65.308617,55.529102 65.168228,54.784618 
	C63.542511,54.467319 61.916798,54.150021 59.625816,54.089645 
z"/>
<path fill="#121212" opacity="1.000000" stroke="none" 
	d="
M45.161324,45.194759 
	C45.780117,47.315399 46.800507,49.671707 46.122887,51.337143 
	C44.027828,56.486313 41.296448,61.377609 38.789059,66.357414 
	C37.927052,68.069397 37.218220,69.926193 36.034180,71.388779 
	C34.912247,72.774643 32.563663,74.983322 31.965336,74.650887 
	C29.812654,73.454849 27.175655,71.619530 26.575788,69.500801 
	C25.718510,66.472900 26.493525,62.982857 26.581137,59.280979 
	C35.720451,61.754471 26.302853,67.879761 31.367672,71.548340 
	C32.927456,68.717255 34.595867,66.209747 35.747166,63.483833 
	C37.740944,58.763191 39.270607,53.845089 41.303406,49.143169 
	C41.975391,47.588860 43.598148,46.445599 45.161324,45.194759 
z"/>
<path fill="#131313" opacity="1.000000" stroke="none" 
	d="
M155.459488,54.735317 
	C157.844086,54.303123 160.794495,52.606628 161.141922,57.121063 
	C150.882629,60.372612 150.882629,60.372612 150.401520,64.972710 
	C152.883347,65.198761 155.361664,65.424500 159.168640,65.771248 
	C155.088333,69.245781 151.556488,70.266739 149.164642,67.584633 
	C147.455765,65.668365 146.532181,61.649437 147.307144,59.223156 
	C148.756210,54.686226 151.438477,50.452053 154.143341,46.454350 
	C155.157120,44.956032 157.594254,42.846310 159.109024,47.092018 
	C159.550400,48.329140 162.680054,48.607147 166.046402,49.880375 
	C161.551010,51.216061 158.357712,52.164867 154.715851,53.555168 
	C154.664673,54.242882 155.062088,54.489101 155.459488,54.735317 
z"/>
<path fill="#101010" opacity="1.000000" stroke="none" 
	d="
M181.907623,63.058205 
	C178.660294,64.298698 175.914520,65.840149 172.971725,66.730064 
	C171.183411,67.270859 168.708298,67.431824 167.277740,66.558182 
	C166.413605,66.030449 166.303604,62.882374 166.986328,61.451630 
	C169.670471,55.826561 172.803467,50.415684 176.551926,45.189487 
	C181.468033,51.571182 174.051346,55.003830 173.038391,60.146610 
	C176.893539,60.146610 180.693146,60.146610 185.808212,60.146610 
	C184.124481,61.567196 183.225311,62.325844 181.907623,63.058205 
z"/>
<path fill="#3C3C3C" opacity="1.000000" stroke="none" 
	d="
M39.738838,36.140411 
	C37.480701,26.434597 35.314331,17.108152 33.376305,7.734497 
	C33.145683,6.619068 34.161106,5.246019 34.598953,3.992386 
	C35.699768,4.726648 37.560120,5.280526 37.783962,6.223060 
	C40.034393,15.698955 42.241505,25.198650 43.942757,34.783600 
	C44.485180,37.839657 42.660488,39.199986 39.738838,36.140411 
z"/>
<path fill="#3C3C3C" opacity="1.000000" stroke="none" 
	d="
M14.149940,19.715527 
	C18.952639,26.831207 23.546953,33.684029 27.829861,40.726238 
	C28.531883,41.880543 27.863035,43.868580 27.827768,45.471287 
	C26.496351,44.638458 24.712454,44.111076 23.909447,42.921539 
	C19.756178,36.769077 15.866074,30.439379 11.858025,24.188265 
	C10.211024,21.619537 9.606476,19.561354 14.149940,19.715527 
z"/>
<path fill="#3C3C3C" opacity="1.000000" stroke="none" 
	d="
M57.913734,34.834183 
	C56.994614,34.001038 56.000118,33.188416 56.057068,32.457737 
	C56.582176,25.720036 57.219780,18.988092 58.033745,12.279844 
	C58.131828,11.471488 59.373852,10.491721 60.275173,10.220013 
	C60.735882,10.081129 62.265007,11.401064 62.209793,11.951083 
	C61.463505,19.385538 60.536366,26.802206 59.580395,34.213787 
	C59.544842,34.489437 58.761127,34.668591 57.913734,34.834183 
z"/>
<path fill="#404040" opacity="1.000000" stroke="none" 
	d="
M12.212335,46.756668 
	C13.497688,49.546944 14.580941,52.047535 15.664193,54.548122 
	C11.427876,56.227776 10.918159,51.943359 8.948387,50.178398 
	C6.993178,48.426487 5.348543,46.244793 3.929857,44.020588 
	C3.405265,43.198135 3.911916,41.717911 3.948244,40.537682 
	C5.111352,40.756893 6.602139,40.600574 7.371077,41.271526 
	C9.106943,42.786190 10.486012,44.709763 12.212335,46.756668 
z"/>
<path fill="#F0F0F0" opacity="1.000000" stroke="none" 
	d="
M59.958450,53.961182 
	C61.916798,54.150021 63.542511,54.467319 65.168228,54.784618 
	C65.308617,55.529102 65.448997,56.273582 65.589386,57.018066 
	C61.335712,59.202572 57.082039,61.387077 52.828362,63.571583 
	C52.400326,63.006443 51.972290,62.441303 51.544254,61.876163 
	C54.238110,59.280659 56.931965,56.685150 59.958450,53.961182 
z"/>
<path fill="#FDFDFD" opacity="1.000000" stroke="none" 
	d="
M155.301285,54.476669 
	C155.062088,54.489101 154.664673,54.242882 154.509491,53.875763 
	C154.882156,53.909241 155.012619,54.063629 155.301285,54.476669 
z"/>
</svg>